<?xml version="1.0" encoding="UTF-8" standalone="no"?>
<svg width="1162" height="367" viewBox="0 0 1162 367" fill="none" xmlns="http://www.w3.org/2000/svg">
<path d="M143.508 48.1496C155.919 26.8017 186.807 26.9592 199 48.4325L277.933 187.45C305.186 235.448 270.518 295 215.322 295H34.7613C19.3386 295 9.71949 278.281 17.4709 264.948L143.508 48.1496Z" fill="url(#paint0_linear_103_4)"/>
<path d="M434.036 217.345L409.473 147.263L384.911 217.345H434.036ZM448.55 258.947H370.397L357.836 295.523H299.5L379.608 85H439.339L519.447 295.523H461.111L448.55 258.947Z" fill="black"/>
<path d="M570.212 223.487C570.212 228.141 571.049 232.515 572.724 236.61C574.399 240.519 576.632 243.962 579.423 246.941C582.4 249.919 585.843 252.246 589.75 253.921C593.844 255.596 598.217 256.434 602.869 256.434C607.335 256.434 611.522 255.596 615.429 253.921C619.523 252.246 622.966 249.919 625.757 246.941C628.734 243.962 631.06 240.519 632.735 236.61C634.596 232.515 635.526 228.234 635.526 223.766C635.526 219.299 634.596 215.111 632.735 211.202C631.06 207.293 628.734 203.849 625.757 200.871C622.966 197.893 619.523 195.566 615.429 193.891C611.522 192.216 607.335 191.378 602.869 191.378C598.403 191.378 594.123 192.216 590.029 193.891C586.122 195.566 582.679 197.893 579.702 200.871C576.911 203.849 574.585 207.293 572.724 211.202C571.049 214.925 570.212 219.02 570.212 223.487ZM633.851 367V281.562C622.128 293.848 607.335 299.99 589.471 299.99C579.237 299.99 569.747 298.036 561.001 294.127C552.255 290.218 544.626 284.82 538.113 277.933C531.786 271.046 526.762 263.042 523.041 253.921C519.505 244.614 517.737 234.749 517.737 224.325C517.737 213.529 519.598 203.477 523.32 194.17C527.041 184.863 532.158 176.766 538.671 169.879C545.184 162.992 552.813 157.594 561.559 153.685C570.305 149.776 579.795 147.822 590.029 147.822C608.451 147.822 623.059 154.616 633.851 168.204V152.289H684.651V352.237L633.851 367Z" fill="black"/>
<path d="M760.23 152.289V232.98C760.23 250.663 768.789 259.505 785.909 259.505C803.028 259.505 811.588 250.663 811.588 232.98V152.289H862.109V242.752C862.109 262.111 855.689 276.63 842.849 286.309C830.196 295.988 811.216 300.828 785.909 300.828C760.602 300.828 741.529 295.988 728.689 286.309C716.036 276.63 709.709 262.111 709.709 242.752V152.289H760.23Z" fill="black"/>
<path d="M882.469 152.289H932.99V175.743C938.386 167.18 944.992 160.665 952.807 156.198C960.623 151.545 969.741 149.218 980.161 149.218C981.464 149.218 982.859 149.218 984.348 149.218C986.023 149.218 987.884 149.404 989.93 149.776V198.079C983.232 194.729 975.974 193.053 968.159 193.053C956.436 193.053 947.597 196.59 941.643 203.663C935.874 210.55 932.99 220.695 932.99 234.097V295.523H882.469V152.289Z" fill="black"/>
<path d="M1047.06 223.487C1047.06 228.141 1047.9 232.515 1049.57 236.61C1051.25 240.519 1053.48 243.962 1056.27 246.941C1059.25 249.919 1062.69 252.246 1066.6 253.921C1070.69 255.596 1075.07 256.434 1079.72 256.434C1084.18 256.434 1088.37 255.596 1092.28 253.921C1096.37 252.246 1099.81 249.919 1102.61 246.941C1105.58 243.962 1107.91 240.519 1109.58 236.61C1111.44 232.701 1112.37 228.513 1112.37 224.046C1112.37 219.578 1111.44 215.39 1109.58 211.481C1107.91 207.386 1105.58 203.849 1102.61 200.871C1099.81 197.893 1096.37 195.566 1092.28 193.891C1088.37 192.216 1084.18 191.378 1079.72 191.378C1075.07 191.378 1070.69 192.216 1066.6 193.891C1062.69 195.566 1059.25 197.893 1056.27 200.871C1053.48 203.849 1051.25 207.293 1049.57 211.202C1047.9 214.925 1047.06 219.02 1047.06 223.487ZM1110.7 152.289H1161.5V295.523H1110.7V279.608C1099.91 293.196 1085.3 299.99 1066.88 299.99C1056.46 299.99 1046.87 298.129 1038.13 294.406C1029.38 290.497 1021.75 285.099 1015.24 278.212C1008.73 271.325 1003.61 263.228 999.889 253.921C996.354 244.614 994.586 234.469 994.586 223.487C994.586 213.249 996.354 203.57 999.889 194.449C1003.42 185.143 1008.36 177.046 1014.68 170.158C1021.01 163.271 1028.55 157.873 1037.29 153.964C1046.04 149.869 1055.71 147.822 1066.32 147.822C1084.18 147.822 1098.98 154.057 1110.7 166.529V152.289Z" fill="black"/>
<defs>
<linearGradient id="paint0_linear_103_4" x1="20.5" y1="160.5" x2="278.863" y2="273.812" gradientUnits="userSpaceOnUse">
<stop stop-color="#94B3CF"/>
<stop offset="1" stop-color="#1C199C"/>
</linearGradient>
</defs>
</svg>
